<svg width="339" height="212" viewBox="0 0 339 212" fill="none" xmlns="http://www.w3.org/2000/svg">
<path d="M174.406 30.997C178.733 27.0552 185.638 28.6983 187.757 34.1743L205.071 78.9031L205.133 79.051C205.286 79.3917 205.5 79.7015 205.765 79.9644L233.424 107.385C237.022 110.951 236.671 116.897 232.679 120.009L222.924 127.615C221.762 128.521 220.092 128.306 219.193 127.136C218.294 125.965 218.507 124.282 219.669 123.377L229.424 115.771L229.556 115.662C230.875 114.512 230.954 112.454 229.694 111.205L202.035 83.7841C201.249 83.0054 200.625 82.0781 200.199 81.0561L200.116 80.8502L182.802 36.1215C182.035 34.1408 179.538 33.5465 177.973 34.9722L145.991 64.1051C145.313 64.723 144.539 65.2238 143.7 65.5879L143.531 65.6591L102.552 82.3815C100.606 83.1756 100.042 85.6805 101.457 87.243L126.673 115.09C127.325 115.809 127.847 116.638 128.217 117.538L146.54 162.154C147.254 163.892 149.35 164.565 150.93 163.563L161.018 157.168C162.261 156.38 163.902 156.757 164.685 158.009C165.467 159.262 165.093 160.916 163.85 161.704L153.763 168.099C149.393 170.869 143.6 169.01 141.626 164.203L123.302 119.587C123.168 119.261 122.979 118.962 122.744 118.701L97.5275 90.8547C93.6156 86.5348 95.1755 79.6096 100.555 77.4143L141.534 60.6919L141.656 60.6392C141.936 60.5102 142.195 60.3384 142.424 60.1298L174.406 30.997Z" fill="#CDCAFD"/>
</svg>
