<svg width="154" height="69" viewBox="0 0 154 69" fill="none" xmlns="http://www.w3.org/2000/svg">
<g opacity="0.3">
<g clip-path="url(#clip0_353_2822)">
<path d="M109.945 46.5371C110.223 47.4136 110.373 48.3455 110.373 49.3131C110.373 54.3795 106.251 58.5016 101.184 58.5016C96.1181 58.5016 91.996 54.3795 91.996 49.3131C91.996 49.2292 91.996 49.1453 91.9996 49.0614C91.6461 49.2685 91.3034 49.4809 90.9695 49.6951C89.2682 50.7913 87.824 51.9642 86.6172 53.0317C86.1709 53.4262 85.7585 53.8047 85.3711 54.1653C87.4491 60.9241 93.7509 65.8513 101.183 65.8513C110.302 65.8513 117.721 58.432 117.721 49.3131C117.721 49.0382 117.714 48.7651 117.701 48.4937C117.632 48.4794 117.562 48.4651 117.492 48.4509C115.436 48.0135 113.536 47.469 111.724 46.9906C111.121 46.8317 110.528 46.6781 109.941 46.5389" fill="#CDCAFD"/>
<path d="M153.823 19.6916C153.755 19.6238 153.67 19.5898 153.568 19.5898C151.574 19.5898 143.017 31.9846 126.481 35.2247C123.844 35.7406 121.466 35.9352 119.276 35.9352C116.007 35.9352 113.158 35.505 110.489 35.073C107.82 34.6427 105.335 34.2107 102.793 34.2107C100.055 34.2107 97.2517 34.7124 94.0883 36.253C93.6313 36.4762 93.185 36.7118 92.7477 36.9582C90.2626 38.3667 88.1222 40.1465 86.3405 42.0192C81.4169 47.191 79.2211 53.0643 79.978 53.7606C80.028 53.8052 80.0869 53.8284 80.1583 53.8284C80.7814 53.8284 82.2453 52.1521 84.6606 50.0598C86.81 48.1961 89.711 46.0038 93.4403 44.3704C94.1669 44.0526 94.9256 43.7545 95.7147 43.4849C98.5799 42.5084 101.154 42.1388 103.554 42.1388C104.828 42.1388 106.053 42.2424 107.244 42.4155C109.529 42.7458 111.694 43.3296 113.86 43.9116C114.927 44.199 115.993 44.4864 117.076 44.7417C119.337 45.279 121.659 45.6843 124.176 45.6843C125.788 45.6843 127.481 45.5182 129.287 45.113C145.879 41.3962 155.43 21.3126 153.821 19.6916H153.823Z" fill="#CDCAFD"/>
<path d="M137.756 0.0468155C137.731 0.0307486 137.706 0.0200373 137.679 0.0111113C136.121 -0.433406 131.367 12.5719 117.324 18.8612C105.21 24.2882 98.0511 19.3985 89.6553 26.2019L89.616 26.2341C87.5969 27.8783 86.1241 30.0937 85.3208 32.5698L82.6572 40.78C82.4984 41.2673 83.1553 41.5905 83.4445 41.1691C83.7712 40.6943 84.1336 40.1784 84.5371 39.6339C86.2955 37.2649 88.8287 34.3836 92.4973 32.1021C103.328 25.3682 111.237 31.8468 121.712 26.8125C135.248 20.3072 139.464 1.12151 137.756 0.0468155Z" fill="#CDCAFD"/>
<path d="M79.1206 60.3833C79.0635 61.9882 78.8296 65.8746 77.8656 67.8634C77.6085 68.3918 76.8623 68.3918 76.607 67.8634C75.643 65.8746 75.4092 61.99 75.352 60.3833C75.3377 59.9888 75.6537 59.6621 76.0483 59.6621H78.4244C78.8189 59.6621 79.1331 59.9888 79.1206 60.3833Z" fill="#CDCAFD"/>
<path d="M44.618 46.5352C43.247 46.8636 41.8402 47.2582 40.3621 47.6491C39.241 47.9455 38.0788 48.2382 36.8595 48.4917C36.847 48.7631 36.8398 49.0362 36.8398 49.3112C36.8398 58.43 44.2592 65.8493 53.378 65.8493C60.8099 65.8493 67.1117 60.9222 69.1896 54.1634C68.9451 53.9366 68.6916 53.7028 68.4238 53.46C67.8275 52.9209 67.1724 52.3478 66.4493 51.7658C65.4853 50.9893 64.4035 50.1948 63.1985 49.4433C62.9896 49.3129 62.779 49.1862 62.5629 49.0594C62.5647 49.1433 62.5665 49.2273 62.5665 49.3112C62.5665 54.3776 58.4445 58.4996 53.378 58.4996C48.3116 58.4996 44.1896 54.3776 44.1896 49.3112C44.1896 48.3436 44.3395 47.4099 44.618 46.5352Z" fill="#CDCAFD"/>
<path d="M68.2189 42.0212C66.4373 40.1503 64.2968 38.3686 61.8118 36.9601C61.3762 36.7138 60.9299 36.4763 60.4711 36.255C57.3077 34.7143 54.5049 34.2127 51.7664 34.2127C49.2243 34.2127 46.7393 34.6429 44.0704 35.0749C41.4015 35.5052 38.5523 35.9372 35.2836 35.9372C33.0931 35.9372 30.7152 35.7444 28.0785 35.2267C11.5438 31.9847 2.98732 19.5918 0.993239 19.5918C0.891482 19.5918 0.805792 19.6239 0.737954 19.6936C-0.870521 21.3145 8.68036 41.3981 25.2721 45.115C27.0787 45.5202 28.7711 45.6862 30.3832 45.6862C32.9003 45.6862 35.2229 45.281 37.4829 44.7436C38.5648 44.4866 39.6323 44.1991 40.6981 43.9135C42.8636 43.3315 45.029 42.7478 47.3141 42.4175C48.5066 42.2443 49.7313 42.1408 51.0041 42.1408C53.4034 42.1408 55.9777 42.5103 58.843 43.4868C59.6338 43.7564 60.3908 44.0528 61.1173 44.3723C64.8466 46.0058 67.7476 48.1998 69.897 50.0618C72.3124 52.154 73.7763 53.8304 74.3993 53.8304C74.4707 53.8304 74.5296 53.8089 74.5796 53.7625C75.3365 53.0663 73.1407 47.1929 68.2171 42.0212H68.2189Z" fill="#CDCAFD"/>
<path d="M16.8085 0.0468155C16.8334 0.0307486 16.8584 0.0200373 16.8852 0.0111113C18.4437 -0.433406 23.1977 12.5719 37.2402 18.8612C49.3546 24.2882 56.5133 19.3985 64.9092 26.2019L64.9484 26.2341C66.9675 27.8783 68.4403 30.0937 69.2437 32.5698L71.9072 40.78C72.0661 41.2673 71.4091 41.5905 71.1199 41.1691C70.7932 40.6943 70.4308 40.1784 70.0274 39.6339C68.2689 37.2649 65.7357 34.3836 62.0671 32.1021C51.2362 25.3682 43.3278 31.8468 32.8521 26.8125C19.3185 20.3072 15.1018 1.12151 16.8085 0.0468155Z" fill="#CDCAFD"/>
</g>
</g>
<defs>
<clipPath id="clip0_353_2822">
<rect width="153.439" height="68.2593" fill="white" transform="translate(0.5625)"/>
</clipPath>
</defs>
</svg>
