<svg width="339" height="212" viewBox="0 0 339 212" fill="none" xmlns="http://www.w3.org/2000/svg">
<path d="M133.363 187.826L131.38 183.961L157.686 151.002L167.032 145.642L133.363 187.826ZM153.235 143.152L127.188 175.788L125.205 171.922L151.322 139.2L153.235 143.152ZM185.618 142.13L167.995 164.211L160.911 166.737L183.712 138.169L185.618 142.13ZM147.276 130.844L121.013 163.75L119.03 159.884L145.363 126.891L147.276 130.844ZM191.554 154.469L190.055 156.346L182.971 158.872L189.648 150.507L191.554 154.469ZM140.613 117.082L141.317 118.535L114.838 151.712L113.607 149.313L112.085 148.81L139.048 115.028L140.613 117.082ZM133.813 108.161L103.607 146.007L99.5967 144.682L131.337 104.914L133.813 108.161ZM126.103 98.047L92.6409 139.971L93.5393 132.496L123.627 94.7992L126.103 98.047ZM248.733 102.603L222.516 135.451L214.486 139.161L246.19 99.4397L248.733 102.603ZM240.813 92.7502L209.559 131.91L207.708 127.879L238.271 89.5864L240.813 92.7502ZM256.652 112.457L246.634 125.008L239.293 127.856L254.109 109.293L256.652 112.457ZM118.392 87.9324L93.6294 118.958L91.3444 115.47L115.916 84.6846L118.392 87.9324ZM140.976 39.8612L86.5142 108.097L84.2296 104.61L136.226 39.4624L140.976 39.8612ZM232.894 82.8973L215.216 105.047L212.557 102.028L230.351 79.7332L232.894 82.8973ZM79.3994 97.2364L77.1148 93.749L101.542 63.143L109.432 59.6089L79.3994 97.2364ZM225.549 72.3256L206.936 95.6457L204.277 92.6264L223.464 68.5875L225.549 72.3256ZM72.2843 86.3755L70 82.8878L76.9741 74.1494L84.8633 70.6153L72.2843 86.3755ZM219.056 60.685L198.656 86.244L195.998 83.2251L216.971 56.9469L219.056 60.685ZM123.749 81.2205L116.219 84.3051L162.559 26.2449L174.82 17.2332L123.749 81.2205ZM212.427 49.2158L192.07 74.7202L190.287 70.6058L209.999 45.9074L212.427 49.2158ZM189.745 18.308L147.199 71.6148L139.669 74.6991L187.317 15L189.745 18.308ZM204.866 38.9131L186.514 61.9064L184.73 57.7917L202.439 35.6047L204.866 38.9131ZM126.184 38.6194L116.255 51.0586L121.259 38.4393L121.434 38.2206L126.184 38.6194ZM197.306 28.6103L180.958 49.0923L179.174 44.9779L194.878 25.3024L197.306 28.6103Z" fill="#F92A82"/>
</svg>
