<svg width="15" height="14" viewBox="0 0 15 14" fill="none" xmlns="http://www.w3.org/2000/svg">
<path d="M12.2558 1.16313L9.18424 0.137926C8.37394 -0.107353 7.49975 -0.0232095 6.75097 0.372134C6.00219 0.767477 5.43911 1.4422 5.18366 2.25018L5.16268 2.33011H3.70559C2.8557 2.33104 2.04088 2.66945 1.43992 3.2711C0.838954 3.87274 0.500926 4.68848 0.5 5.53933L0.5 10.7908C0.500926 11.6416 0.838954 12.4574 1.43992 13.059C2.04088 13.6607 2.8557 13.9991 3.70559 14H6.61977C7.09664 13.9999 7.56747 13.8931 7.99784 13.6874C8.42822 13.4818 8.80727 13.1825 9.1073 12.8114C9.85791 12.9107 10.6193 12.7385 11.2544 12.326C11.8896 11.9134 12.3569 11.2876 12.5723 10.5609L14.3715 5.13089C14.6066 4.32391 14.5168 3.45686 14.1214 2.71531C13.726 1.97375 13.0563 1.41661 12.2558 1.16313ZM8.07685 10.7908C8.07685 11.1777 7.92334 11.5487 7.65008 11.8223C7.37682 12.0958 7.00621 12.2495 6.61977 12.2495H3.70559C3.31915 12.2495 2.94853 12.0958 2.67528 11.8223C2.40202 11.5487 2.2485 11.1777 2.2485 10.7908V5.53933C2.2485 5.15245 2.40202 4.78142 2.67528 4.50785C2.94853 4.23428 3.31915 4.0806 3.70559 4.0806H6.61977C7.00621 4.0806 7.37682 4.23428 7.65008 4.50785C7.92334 4.78142 8.07685 5.15245 8.07685 5.53933V10.7908ZM12.7022 4.60574L10.9036 10.0387C10.8297 10.29 10.6892 10.5167 10.4972 10.6947C10.3051 10.8727 10.0686 10.9954 9.81253 11.0499C9.81894 10.9641 9.82536 10.8783 9.82536 10.7908V5.53933C9.82448 4.76565 9.54445 4.01832 9.03681 3.43495C8.52918 2.85158 7.82812 2.47145 7.06272 2.36454C7.23614 2.11683 7.48265 1.92968 7.76769 1.82933C8.05273 1.72898 8.36199 1.72046 8.65211 1.80497L11.7225 2.83017C12.084 2.94104 12.3883 3.18824 12.5711 3.51956C12.7539 3.85088 12.8009 4.24036 12.7022 4.60574Z" fill="#B3B3B3"/>
</svg>
