<svg width="87" height="87" viewBox="0 0 87 87" fill="none" xmlns="http://www.w3.org/2000/svg">
<path d="M74.2001 4.15608L74.0877 4.1162L64.6954 0.987899C61.0612 -0.220469 57.1502 -0.32266 53.4579 0.69428L34.22 6.28753C32.3121 6.80672 30.2821 6.63467 28.4889 5.80179L26.6764 4.96806C23.7482 3.75107 20.5649 3.27519 17.4088 3.58261C14.2527 3.89002 11.2212 4.97124 8.58286 6.73043C5.94456 8.48962 3.78096 10.8725 2.28382 13.6678C0.786681 16.4631 0.00223438 19.5846 0 22.7555L0 64.5255C0.00838566 68.6886 1.36175 72.7375 3.8584 76.0689C6.35505 79.4003 9.86134 81.8359 13.8547 83.0126L23.7872 86.1191C25.6484 86.7006 27.5867 86.9976 29.5365 87C31.2685 86.9652 32.9908 86.7316 34.6695 86.304L54.7375 80.7651C56.2212 80.3594 57.7882 80.3719 59.2651 80.8014L67.454 83.1612C69.7811 83.726 72.206 83.7549 74.5459 83.2459C76.8858 82.737 79.0796 81.7033 80.9618 80.2229C82.844 78.7425 84.3655 76.8541 85.4114 74.7C86.4574 72.546 87.0006 70.1825 87 67.7879V22.3097C86.9942 18.3344 85.7618 14.4577 83.471 11.2087C81.1802 7.95978 77.9426 5.49685 74.2001 4.15608ZM50.75 12.8124V70.5791L36.25 74.5846V16.923L50.75 12.8124ZM16.9722 72.5982C15.2195 72.0932 13.6777 71.0334 12.5784 69.5779C11.479 68.1223 10.8813 66.3495 10.875 64.5255V22.7555C10.864 21.3701 11.2007 20.0041 11.8543 18.7825C12.5078 17.5609 13.4574 16.5227 14.616 15.7631C16.0083 14.8232 17.6486 14.3185 19.3285 14.3131C20.3519 14.3106 21.3658 14.5102 22.3119 14.9003L25.375 16.1836V75.2263L16.9722 72.5982ZM76.125 67.7879C76.1242 68.5175 75.9624 69.2379 75.651 69.8976C75.3396 70.5574 74.8864 71.1403 74.3237 71.6047C73.761 72.069 73.1027 72.4034 72.3958 72.5839C71.6889 72.7644 70.9508 72.7866 70.2344 72.6489L61.625 70.2166V11.4313L70.5969 14.4146C72.2156 15.0067 73.6136 16.0812 74.6022 17.4931C75.5908 18.9049 76.1223 20.5861 76.125 22.3097V67.7879Z" fill="#58559B"/>
</svg>
