<svg width="34" height="35" viewBox="0 0 34 35" fill="none" xmlns="http://www.w3.org/2000/svg">
<path d="M28.9977 2.12421L28.9538 2.10863L25.2832 0.886075C23.863 0.41384 22.3345 0.373903 20.8916 0.771328L13.3733 2.9572C12.6277 3.1601 11.8344 3.09286 11.1336 2.76737L10.4253 2.44154C9.28089 1.96593 8.03688 1.77996 6.80345 1.9001C5.57003 2.02024 4.38529 2.44278 3.35422 3.13028C2.32316 3.81778 1.47762 4.74901 0.892528 5.84143C0.307439 6.93385 0.000873205 8.15374 0 9.39297L0 25.7169C0.00327716 27.3438 0.532176 28.9262 1.50788 30.2281C2.48358 31.53 3.85386 32.4818 5.4145 32.9417L9.29617 34.1558C10.0235 34.383 10.781 34.4991 11.543 34.5C12.2199 34.4864 12.8929 34.3951 13.549 34.228L21.3917 32.0634C21.9715 31.9048 22.5839 31.9097 23.1611 32.0776L26.3613 32.9998C27.2708 33.2205 28.2184 33.2318 29.1329 33.0329C30.0473 32.834 30.9047 32.43 31.6403 31.8515C32.3758 31.2729 32.9704 30.5349 33.3792 29.6931C33.788 28.8513 34.0002 27.9276 34 26.9918V9.21872C33.9977 7.66515 33.5161 6.15013 32.6208 4.88042C31.7256 3.61072 30.4603 2.64819 28.9977 2.12421ZM19.8333 5.50714V28.0826L14.1667 29.648V7.11361L19.8333 5.50714ZM6.63283 28.8717C5.94784 28.6743 5.34532 28.2602 4.91569 27.6913C4.48605 27.1225 4.25247 26.4297 4.25 25.7169V9.39297C4.2457 8.85155 4.37728 8.3177 4.6327 7.84029C4.88812 7.36288 5.25921 6.95717 5.712 6.66028C6.25613 6.29298 6.89717 6.09574 7.55367 6.09363C7.95362 6.09265 8.34983 6.17064 8.71958 6.32312L9.91667 6.82461V29.8988L6.63283 28.8717ZM29.75 26.9918C29.7497 27.2769 29.6864 27.5585 29.5648 27.8163C29.4431 28.0742 29.2659 28.302 29.046 28.4834C28.8261 28.6649 28.5689 28.7956 28.2926 28.8661C28.0163 28.9367 27.7279 28.9454 27.4479 28.8915L24.0833 27.941V4.9674L27.5896 6.13329C28.2222 6.36468 28.7685 6.7846 29.1549 7.33637C29.5412 7.88813 29.7489 8.54515 29.75 9.21872V26.9918Z" fill="#F92A82"/>
</svg>
