<svg width="34" height="35" viewBox="0 0 34 35" fill="none" xmlns="http://www.w3.org/2000/svg">
<path d="M28.5497 3.32473L21.0903 0.834963C19.1224 0.239286 16.9994 0.443634 15.1809 1.40375C13.3625 2.36387 11.995 4.00248 11.3746 5.96471L11.3236 6.15885H7.78501C5.72099 6.1611 3.74214 6.98295 2.28266 8.44409C0.823174 9.90523 0.00224798 11.8863 0 13.9527L0 26.7062C0.00224798 28.7725 0.823174 30.7536 2.28266 32.2148C3.74214 33.6759 5.72099 34.4977 7.78501 34.5H14.8623C16.0204 34.4997 17.1639 34.2403 18.209 33.7409C19.2542 33.2415 20.1748 32.5147 20.9035 31.6135C22.7264 31.8545 24.5754 31.4365 26.1179 30.4346C27.6604 29.4327 28.7953 27.9126 29.3183 26.1479L33.6879 12.9607C34.2588 11.0009 34.0408 8.89524 33.0805 7.09432C32.1203 5.2934 30.494 3.94035 28.5497 3.32473ZM18.4009 26.7062C18.4009 27.6458 18.0281 28.5468 17.3645 29.2112C16.7009 29.8756 15.8008 30.2488 14.8623 30.2488H7.78501C6.8465 30.2488 5.94643 29.8756 5.28281 29.2112C4.61919 28.5468 4.24637 27.6458 4.24637 26.7062V13.9527C4.24637 13.0131 4.61919 12.112 5.28281 11.4476C5.94643 10.7833 6.8465 10.41 7.78501 10.41H14.8623C15.8008 10.41 16.7009 10.7833 17.3645 11.4476C18.0281 12.112 18.4009 13.0131 18.4009 13.9527V26.7062ZM29.634 11.6854L25.2659 24.8796C25.0863 25.49 24.7453 26.0405 24.2789 26.4728C23.8124 26.9051 23.2379 27.2031 22.6162 27.3354C22.6317 27.127 22.6473 26.9187 22.6473 26.7062V13.9527C22.6452 12.0737 21.9651 10.2588 20.7323 8.84202C19.4994 7.42527 17.7969 6.50209 15.938 6.24245C16.3592 5.64088 16.9579 5.18637 17.6501 4.94266C18.3423 4.69894 19.0934 4.67826 19.798 4.8835L27.2546 7.37327C28.1325 7.64253 28.8715 8.24288 29.3155 9.0475C29.7595 9.85213 29.8737 10.798 29.634 11.6854Z" fill="#F92A82"/>
</svg>
