<svg width="87" height="87" viewBox="0 0 87 87" fill="none" xmlns="http://www.w3.org/2000/svg">
<path d="M73.0538 7.22799L53.9663 0.857111C48.9309 -0.667121 43.4984 -0.14423 38.8453 2.31255C34.1922 4.76932 30.693 8.96222 29.1056 13.9832L28.9752 14.48H19.9205C14.639 14.4858 9.57549 16.5887 5.84092 20.3275C2.10636 24.0663 0.0057522 29.1356 0 34.423L0 67.057C0.0057522 72.3444 2.10636 77.4137 5.84092 81.1525C9.57549 84.8913 14.639 86.9942 19.9205 87H38.03C40.9934 86.9992 43.9193 86.3355 46.5937 85.0577C49.2682 83.7798 51.6237 81.9199 53.4882 79.6138C58.1527 80.2306 62.884 79.1609 66.8311 76.5973C70.7782 74.0336 73.6821 70.1441 75.0205 65.6284L86.2013 31.8848C87.6623 26.87 87.1045 21.4819 84.6473 16.8737C82.1901 12.2655 78.0287 8.80324 73.0538 7.22799ZM47.0847 67.057C47.0847 69.4612 46.1307 71.7669 44.4326 73.4669C42.7346 75.1669 40.4314 76.122 38.03 76.122H19.9205C17.519 76.122 15.2159 75.1669 13.5178 73.4669C11.8197 71.7669 10.8657 69.4612 10.8657 67.057V34.423C10.8657 32.0188 11.8197 29.7131 13.5178 28.0131C15.2159 26.3131 17.519 25.358 19.9205 25.358H38.03C40.4314 25.358 42.7346 26.3131 44.4326 28.0131C46.1307 29.7131 47.0847 32.0188 47.0847 34.423V67.057ZM75.8281 28.6214L64.651 62.3831C64.1915 63.9451 63.3189 65.3537 62.1253 66.4599C60.9318 67.566 59.4617 68.3286 57.8708 68.6669C57.9106 68.1339 57.9504 67.6009 57.9504 67.057V34.423C57.945 29.6151 56.2048 24.971 53.0502 21.3458C49.8956 17.7205 45.539 15.3583 40.7826 14.6939C41.8603 13.1546 43.3922 11.9916 45.1635 11.368C46.9348 10.7444 48.8567 10.6914 50.6595 11.2166L69.7397 17.5875C71.9862 18.2765 73.8771 19.8127 75.0132 21.8716C76.1493 23.9304 76.4415 26.3508 75.8281 28.6214Z" fill="#58559B"/>
</svg>
