<svg width="52" height="52" viewBox="0 0 52 52" fill="none" xmlns="http://www.w3.org/2000/svg">
<path d="M52 0L47.0262 18.7909L51.9227 26.0002L47.0262 33.2091L52 52L33.2091 47.0262L26.0002 51.9227L18.7909 47.0262L0 52L4.97419 33.2098L0.0772676 26.0009L4.97419 18.792L0 0.000708877L18.7909 4.9749L26.0002 0.0783309L33.2091 4.9749L52 0Z" fill="#F8F7FC"/>
<path d="M47.0261 18.791L51.9227 26L47.0261 33.209L52 52L33.209 47.0261L26 51.9227L18.791 47.0261L0 52L4.97425 33.2098L0.077326 26.0008L4.97425 18.7921L0 0.000769413L18.791 4.97502L26 0.0784801L33.209 4.97502L52 0L47.0261 18.791ZM19.373 8.38929L4.43336 4.43413L8.38852 19.3742L3.88669 26.0008L8.38852 32.6273L4.43336 47.5663L19.373 43.6119L26.0004 48.1129L32.6266 43.6119L47.5663 47.5663L43.6119 32.6266L48.1129 26.0004L43.6119 19.373L47.5663 4.43374L32.627 8.38929L26 3.88784L19.373 8.38929Z" fill="#58559B"/>
<path d="M37.0312 25.9998L20.4858 35.5523L20.4858 16.4473L37.0312 25.9998Z" fill="#58559B"/>
<path d="M20.4858 35.5526L20.4858 16.4473L37.0312 25.9999L20.4858 35.5526ZM21.2737 17.8122L21.2737 34.1876L35.4555 25.9999L21.2737 17.8122Z" fill="#58559B"/>
</svg>
