<svg width="1427" height="716" viewBox="0 0 1427 716" fill="none" xmlns="http://www.w3.org/2000/svg">
<g clip-path="url(#clip0_545_255)">
<path d="M287.25 343.74C275.18 366.44 249.65 391.96 224.47 391.96C199.29 391.96 196.81 369.26 196.81 357.22V252.23H90.4302V335.59C90.4302 354.01 115.23 348.7 125.89 343.73C113.82 366.43 88.2902 391.95 63.1102 391.95C37.9302 391.95 35.4502 369.25 35.4502 357.21V136.25C35.4502 117.83 10.6202 123.14 -0.00976562 128.11C12.0602 105.41 37.5902 79.8896 63.1102 79.8896C88.6302 79.8896 90.4302 102.59 90.4302 114.63V219.62H196.81V136.26C196.81 117.84 171.98 123.15 161.35 128.12C173.42 105.42 198.95 79.8997 224.47 79.8997C249.99 79.8997 251.79 102.6 251.79 114.64V335.6C251.79 354.02 276.59 348.71 287.25 343.74Z" fill="#7F7CBA"/>
<path d="M432.47 324.6C411.54 368.92 369.69 391.97 344.52 391.97C319.35 391.97 316.86 369.27 316.86 357.23V232.03C316.86 213.95 292.4 218.92 281.4 223.89C293.44 201.19 319 175.67 344.52 175.67C370.04 175.67 371.84 198.37 371.84 210.78V327.44C371.84 356.17 418.27 339.51 432.48 324.61L432.47 324.6ZM303.37 116.06C303.37 95.5002 320.41 78.4902 341.31 78.4902C362.21 78.4902 378.91 95.5002 378.91 116.06C378.91 136.62 361.9 154.03 341.31 154.03C320.72 154.03 303.37 136.99 303.37 116.06Z" fill="#7F7CBA"/>
<path d="M582.19 328.15C582.19 373.89 536.08 391.97 497.79 391.97C476.13 391.97 431.81 385.24 419.05 349.44C411.25 327.09 421.88 309.71 442.81 309.71C448.12 309.71 454.16 310.78 460.19 313.26C463.02 344.82 476.85 359.35 495.3 359.35C512.65 359.35 520.83 350.14 520.83 338.07C520.83 295.16 416.91 307.23 416.91 237.73C416.91 196.58 454.51 175.3 496.72 175.3C516.56 175.3 564.09 183.47 576.85 218.93C586.78 246.94 567.64 267.15 535.36 255.46C532.88 222.83 514.8 207.93 495.31 207.93C491.41 207.93 473.31 209.34 473.31 228.86C473.31 268.94 582.2 262.56 582.2 328.16L582.19 328.15Z" fill="#7F7CBA"/>
<path d="M919.22 283.8C919.22 343.4 883.76 391.97 820.99 391.97C758.22 391.97 722.76 343.4 722.76 283.8C722.76 224.2 757.87 175.66 820.99 175.66C884.11 175.66 919.22 223.88 919.22 283.8ZM863.9 283.8C863.9 241.96 853.24 207.92 820.99 207.92C788.74 207.92 777.73 241.96 777.73 283.8C777.73 325.64 788.36 359.71 820.99 359.71C853.62 359.71 863.9 325.67 863.9 283.8Z" fill="#7F7CBA"/>
<path d="M1084.25 324.6C1063.32 368.92 1021.47 391.97 996.3 391.97C971.13 391.97 968.64 369.27 968.64 357.23V232.03C968.64 213.95 944.18 218.92 933.18 223.89C945.22 201.19 970.78 175.67 996.3 175.67C1021.82 175.67 1023.62 198.37 1023.62 210.78V327.44C1023.62 356.17 1070.05 339.51 1084.26 324.61L1084.25 324.6ZM955.15 116.06C955.15 95.5002 972.19 78.4902 993.09 78.4902C1013.99 78.4902 1030.69 95.5002 1030.69 116.06C1030.69 136.62 1013.68 154.03 993.09 154.03C972.5 154.03 955.15 136.99 955.15 116.06Z" fill="#7F7CBA"/>
<path d="M1196.72 247.99C1197.07 231.33 1189.99 218.57 1176.51 218.57C1156.3 218.57 1134.32 247.99 1132.19 291.63V335.61C1132.19 353.69 1156.65 348.72 1167.65 343.75C1155.58 366.45 1130.05 391.97 1104.53 391.97C1079.01 391.97 1076.87 369.27 1076.87 356.86C1076.87 356.86 1077.22 236.65 1077.22 232.03C1077.22 213.61 1052.42 218.92 1041.76 223.89C1053.45 201.19 1079.01 175.67 1104.54 175.67C1130.07 175.67 1132.2 198.37 1132.2 210.41V227.45C1140.34 196.58 1163.76 172.82 1191.42 172.82C1228.29 172.82 1236.09 225.32 1196.73 248.01L1196.72 247.99Z" fill="#7F7CBA"/>
<path d="M1426.25 306.87C1416.32 360.75 1376.96 391.97 1330.5 391.97C1267.75 391.97 1230.5 343.75 1230.5 283.8C1230.5 223.85 1265.96 175.66 1333.7 175.66C1365.95 175.66 1413.83 193.39 1413.83 241.96C1413.83 305.08 1331.22 314.32 1290.44 310.42C1299.3 337.36 1319.14 352.61 1347.18 352.61C1378.37 352.61 1406.37 335.6 1426.24 306.87H1426.25ZM1285.48 276.72C1285.48 278.13 1285.48 281.69 1285.83 285.24C1322.36 284.86 1359.58 272.45 1359.58 240.89C1359.58 215.71 1343.64 207.91 1331.22 207.91C1304.97 207.91 1285.48 234.88 1285.48 276.72Z" fill="#7F7CBA"/>
<path d="M773.12 0L729.35 23.61V59.34H683.28V36.93H616.54V59.34H570.47V23.61L526.71 0V97.77C526.71 118.25 551.85 138.36 575.56 144.11C567.3 129.74 565.5 108.19 584.18 108.19H621.54V356.4C621.54 368.61 623.69 391.96 649.2 391.96C674.71 391.96 700.93 366.1 713.14 342.75C702 348.14 677.22 353.17 677.22 334.49V108.19H715.66C734.34 108.19 732.54 129.74 723.92 144.11C747.9 138.38 772.95 118.39 773.12 97.99V97.82C773.12 97.82 773.12 97.79 773.12 97.78C773.12 97.76 773.12 97.75 773.12 97.73V92.28V0Z" fill="#7F7CBA"/>
<path d="M565.86 648.58C545.05 692.63 503.82 715.88 478.45 715.88C453.08 715.88 450.96 693.32 450.96 680.98V664.08C441.43 694.04 414.31 715.88 381.17 715.88C358.61 715.88 343.83 707.79 335.02 693.7C326.21 679.95 323.02 660.21 323.02 636.59V556.93C323.02 538.62 298.34 543.56 287.78 548.84C299.75 525.94 325.14 500.54 350.17 500.54C375.2 500.54 377.66 523.47 377.66 535.44V630.26C377.66 662.69 384.69 676.43 400.9 676.43C420.99 676.43 444.61 644.69 450.95 600.3V556.94C450.95 538.63 426.64 543.57 415.71 548.85C427.71 525.95 453.07 500.55 478.44 500.55C503.81 500.55 505.93 523.48 505.93 535.45L505.59 651.42C505.59 679.97 550.7 664.1 565.85 648.61L565.86 648.58Z" fill="#7F7CBA"/>
<path d="M760.39 473.04C768.51 458.61 770.26 437.8 752.3 437.8H737.84C702.94 437.8 681.11 454.39 668.42 477.29V562.92C680.04 544.96 700.13 524.52 729.37 524.52C766.39 524.52 776.26 555.17 769.92 580.91C746.3 556.57 697.66 556.57 668.42 591.47V659.86C668.42 678.17 693.07 672.89 703.66 667.95C691.66 690.51 666.3 715.87 641.27 715.87C616.24 715.87 613.78 693.31 613.78 680.97V461.75C613.78 443.44 589.47 448.72 578.54 453.66C590.54 431.1 615.9 405.74 641.27 405.74C662.76 405.74 667.36 422.3 668.42 434.64C683.92 418.77 707.19 405.74 741.71 405.74H773.45C785.76 405.74 808.32 408.21 808.32 428.98C808.32 451.54 783.67 467.06 760.4 473.03L760.39 473.04Z" fill="#7F7CBA"/>
<path d="M984.31 608.38C984.31 667.61 949.07 715.88 886.68 715.88C824.29 715.88 789.05 667.61 789.05 608.38C789.05 549.15 823.95 500.91 886.68 500.91C949.41 500.91 984.31 548.83 984.31 608.38ZM929.33 608.38C929.33 566.8 918.74 532.96 886.69 532.96C854.64 532.96 843.7 566.79 843.7 608.38C843.7 649.97 854.26 683.83 886.69 683.83C919.12 683.83 929.33 650 929.33 608.38Z" fill="#7F7CBA"/>
<path d="M1144.1 572.79C1144.44 556.23 1137.41 543.55 1124.01 543.55C1103.92 543.55 1082.08 572.79 1079.96 616.15V659.86C1079.96 677.82 1104.27 672.89 1115.2 667.95C1103.2 690.51 1077.84 715.87 1052.47 715.87C1027.1 715.87 1024.98 693.31 1024.98 680.97C1024.98 680.97 1025.32 561.5 1025.32 556.91C1025.32 538.6 1000.67 543.88 990.08 548.82C1001.7 526.26 1027.1 500.9 1052.47 500.9C1077.84 500.9 1079.96 523.46 1079.96 535.42V552.35C1088.05 521.67 1111.33 498.05 1138.82 498.05C1175.47 498.05 1183.22 550.22 1144.1 572.78V572.79Z" fill="#7F7CBA"/>
<path d="M1351.44 647.15C1332.41 691.23 1293.27 715.88 1262.62 715.88C1234.07 715.88 1230.19 693.32 1230.19 680.98V532.96H1192.14V500.53C1262.28 495.59 1283.77 414.9 1284.83 413.49V500.53H1325.35V532.96H1284.83V651.39C1284.83 679.94 1336.28 662.67 1351.44 647.14V647.15Z" fill="#7F7CBA"/>
<path d="M308.85 649.72C289.28 691.15 250.49 712.69 226.63 712.69C202.77 712.69 201.1 691.47 201.1 680.22V679.22C190.17 700.76 166.96 712.69 142.45 712.69C99.3401 712.69 74.8101 678.55 74.8101 630.5C74.8101 539.32 147.74 516.46 201.1 511.5V458.79C201.1 441.54 177.91 446.19 167.95 450.83C179.23 429.61 203.09 405.75 226.63 405.75C250.17 405.75 252.49 426.97 252.49 438.57V652.37C252.49 679.23 294.6 663.98 308.85 649.72ZM201.1 546.96C171.95 548.61 129.52 566.85 129.52 628.18C129.52 658.65 140.45 678.22 160.67 678.22C175.6 678.22 194.81 660.97 201.1 619.22V546.96Z" fill="#7F7CBA"/>
</g>
<defs>
<clipPath id="clip0_545_255">
<rect width="1426.25" height="715.88" fill="white"/>
</clipPath>
</defs>
</svg>
